<svg viewBox="0 0 20 20" fill="none" xmlns="http://www.w3.org/2000/svg" height="1em" style="font-size: 32px;"><path fill-rule="evenodd" clip-rule="evenodd" d="M11 7V4.083A6.005 6.005 0 0115.917 9H13v2h2.917A6.005 6.005 0 0111 15.917V13H9v2.917A6.005 6.005 0 014.083 11H7V9H4.083A6.005 6.005 0 019 4.083V7h2zm6.938 2A8.004 8.004 0 0011 2.062V0H9v2.062A8.004 8.004 0 002.062 9H0v2h2.062A8.004 8.004 0 009 17.938V20h2v-2.062A8.004 8.004 0 0017.938 11H20V9h-2.062zM11 9H9v2h2V9z" fill="currentColor"></path></svg>