<svg width="43" height="69" viewBox="0 0 43 69" fill="none" xmlns="http://www.w3.org/2000/svg">
<path d="M14.4381 7.21919C13.4755 10.1069 15.2402 14.4384 16.2429 16.2432C18.0476 15.04 21.0556 13.2352 22.2588 9.02398C22.8501 6.95445 21.4567 2.20586 20.454 0C18.8498 1.2032 15.4006 4.33151 14.4381 7.21919Z" fill="#B0BEC5"/>
<path d="M6.62577 22.4476C7.41834 25.3865 11.2819 28.0226 13.1146 28.9733C13.9545 26.9735 15.4651 23.8075 14.1421 19.6324C13.492 17.5806 9.70753 14.3918 7.6533 13.1067C6.98055 14.9958 5.83319 19.5087 6.62577 22.4476Z" fill="#B0BEC5"/>
<path d="M6.00005 39.5623C7.76807 42.0401 12.3085 43.1628 14.3577 43.4144C14.4472 41.2472 14.7585 37.7532 12.0621 34.3019C10.737 32.6058 6.07792 30.9375 3.70446 30.4498C3.73298 32.4549 4.23203 37.0846 6.00005 39.5623Z" fill="#B0BEC5"/>
<path d="M11.7487 55.9987C14.1927 57.8131 18.8584 57.4859 20.8858 57.0954C20.3048 55.0056 19.5271 51.5851 15.9004 49.1296C14.1181 47.923 9.17176 47.7675 6.7633 48.0329C7.40676 49.9322 9.30468 54.1844 11.7487 55.9987Z" fill="#B0BEC5"/>
<path d="M19.0497 68.1426C21.8695 69.2887 26.3055 67.806 28.171 66.9214C27.0862 65.043 25.4785 61.9253 21.3533 60.454C19.326 59.7309 14.4977 60.8163 12.232 61.6751C13.3296 63.3534 16.2298 66.9964 19.0497 68.1426Z" fill="#B0BEC5"/>
<path d="M38.021 59.6868C37.2924 62.6422 33.4871 65.3616 31.6755 66.3519C30.7923 64.3708 29.2132 61.2385 30.4452 57.0356C31.0506 54.9701 34.7648 51.6998 36.7906 50.3704C37.5043 52.2444 38.7495 56.7313 38.021 59.6868Z" fill="#B0BEC5"/>
<path d="M25.1919 23.9292C23.9716 26.7177 19.7594 28.7507 17.8058 29.4186C17.2722 27.3162 16.2486 23.961 18.1771 20.0287C19.1248 18.0963 23.3409 15.5049 25.5633 14.5393C25.948 16.5073 26.4123 21.1406 25.1919 23.9292Z" fill="#B0BEC5"/>
<path d="M25.2653 38.4204C23.8041 41.0906 19.4291 42.7447 17.4243 43.2379C17.078 41.0967 16.3539 37.6643 18.6213 33.9172C19.7355 32.0757 24.1635 29.8658 26.4622 29.0997C26.6721 31.094 26.7265 35.7501 25.2653 38.4204Z" fill="#B0BEC5"/>
<path d="M31.2047 49.1937C29.9905 51.985 25.7828 54.0273 23.8307 54.6995C23.2925 52.5983 22.2614 49.2453 24.1812 45.3088C25.1247 43.3743 29.3351 40.7736 31.5552 39.803C31.9443 41.7702 32.4188 46.4025 31.2047 49.1937Z" fill="#B0BEC5"/>
</svg>
