<svg viewBox="0 0 32 33" xmlns="http://www.w3.org/2000/svg" class="gZj_YSzWs0K_ VT9q5Oi4gGCJ"><path fill-rule="evenodd" clip-rule="evenodd" d="M18.6667 6.1875C18.6667 8.08598 17.1743 9.625 15.3333 9.625C13.4924 9.625 12 8.08598 12 6.1875C12 4.28902 13.4924 2.75 15.3333 2.75C17.1743 2.75 18.6667 4.28902 18.6667 6.1875ZM16.6667 10.3125H12L12 17.875L12 22H16H20L22 30.25H24V22L24 17.875H16.7059L17.3171 14.3034L26.6667 12.375L28 10.3125H18H16.6667ZM12 23.375H16V26.8125L16 30.25H12H4L5.33333 28.1875L12 27.3281L12 23.375Z" fill="currentColor"></path></svg>