<svg viewBox="0 0 24 29" xmlns="http://www.w3.org/2000/svg" class="gZj_YSzWs0K_ VT9q5Oi4gGCJ"><path fill-rule="evenodd" clip-rule="evenodd" d="M16 0.333374H8V1.66671L9.33333 3.00004H10.6667V4.40661C4.66673 5.06987 0 10.1566 0 16.3334C0 22.9608 5.37258 28.3334 12 28.3334C18.6274 28.3334 24 22.9608 24 16.3334C24 13.6207 23.0999 11.1182 21.5821 9.1084L23.6904 7.00008L21.8048 5.11446L19.7489 7.17035C17.9772 5.67058 15.7647 4.67539 13.3333 4.40661V3.00004H14.6667L16 1.66671V0.333374ZM21.3333 16.3334C21.3333 21.488 17.1547 25.6667 12 25.6667C6.84534 25.6667 2.66667 21.488 2.66667 16.3334C2.66667 11.1787 6.84534 7.00004 12 7.00004C17.1547 7.00004 21.3333 11.1787 21.3333 16.3334Z" fill="currentColor"></path><path d="M11.9999 7L11.9999 16.3333L18.5997 22.933C16.9107 24.622 14.5773 25.6667 12 25.6667C6.84533 25.6667 2.6665 21.488 2.6665 16.3333C2.6665 11.1787 6.84528 7 11.9999 7Z" fill="currentColor"></path></svg>